<?xml version="1.0" encoding="UTF-8"?>
<svg width="86px" height="114px" viewBox="0 0 86 114" version="1.1" xmlns="http://www.w3.org/2000/svg" xmlns:xlink="http://www.w3.org/1999/xlink">
    <title>Group</title>
    <g id="Page-1" stroke="none" stroke-width="1" fill="none" fill-rule="evenodd">
        <g id="Group" transform="translate(0.869990, 0.470912)" fill-rule="nonzero">
            <path d="M5.63828812,3.55271368e-15 C6.79579728,1.75248175 7.98224417,3.44113139 9.54488153,4.8570438 C13.081072,8.18791971 17.3638559,9.83014599 21.9302295,11.2112409 C34.5470793,5.14138686 50.0519145,5.07755474 62.634039,11.2692701 C66.7663467,9.99843066 70.6903028,8.44324818 74.0991672,5.69846715 C76.0669328,4.07945255 77.4617313,2.12386861 78.9607057,0.0928467153 C79.3079585,3.34828467 79.3542588,6.48186131 77.861072,9.47616788 C75.5981416,14.6871898 69.9900097,17.8033577 64.8796068,19.6022628 C60.5678852,21.1284307 56.1982881,22.7532482 52.1701563,24.935146 C48.0378486,27.2040876 44.6926471,30.7264599 42.2676654,34.7478832 C39.7790207,30.714854 36.5090574,27.2563139 32.3651746,24.9177372 C28.6495702,22.8460949 24.5462002,21.389562 20.5643687,19.9156204 C16.9992405,18.6854015 13.6135262,17.1824453 10.7081782,14.7162044 C8.15008299,12.6387591 6.4948449,9.71989051 5.68458849,6.54569343 C5.18685955,4.39281022 5.45308666,2.17609489 5.63828812,3.55271368e-15 Z" id="p2" fill="#000000"></path>
            <path d="M9.66641999,19.2831022 C10.494039,19.7937591 11.3274456,20.2986131 12.1608522,20.8034672 C10.557702,23.3567518 9.13396578,25.8287956 8.63623684,28.8637226 C8.21953354,31.7477737 8.27162146,34.7594891 8.94876431,37.5971168 C10.3840757,43.2143431 14.3601196,48.0307664 19.5631233,50.5492336 C24.4188742,53.0328832 29.5871526,53.2417883 34.321365,56.0271898 C37.5392405,57.7332482 40.132061,60.2227007 42.3486911,63.0835401 C45.4045152,58.6385036 49.9708889,55.6441971 55.0234163,53.9381387 C58.710083,52.6905109 62.2809987,52.1160219 65.7361636,50.1662409 C71.7841489,46.8875912 76.0206324,40.5217883 76.1421709,33.5582847 C76.4315482,28.9333577 74.9904493,24.645 72.5191672,20.7976642 C73.3236361,20.2637956 74.128105,19.7241241 74.9267863,19.1844526 C77.097116,22.5385401 78.8507423,26.0725182 79.5163101,30.0533212 C80.8416581,36.0883577 79.4179218,42.9358029 75.517116,47.7580292 C72.0966764,51.9535401 67.5187277,54.419781 62.5298632,56.2709124 C65.6088376,61.5689781 67.5187277,67.4705474 67.9817313,73.5926277 C68.5141856,82.6277737 65.4004859,91.639708 60.2032698,98.9513869 C58.2586544,98.7134672 56.2214383,97.9010584 54.3346984,98.4987591 C52.4248083,99.084854 50.3065665,99.305365 48.5182149,100.187409 C46.4462735,101.475657 45.9832698,103.582117 45.3003394,105.758212 C43.3094237,105.827847 41.3416581,105.810438 39.3507423,105.711788 C38.6678119,103.518285 38.1353577,101.440839 36.0865665,100.117774 C34.4486911,99.2531387 32.4288376,99.1080657 30.6578486,98.5916058 C28.4238559,97.9126642 26.6065665,98.6786496 24.3725738,98.9107664 C20.4544053,92.9279562 17.3927936,86.150146 16.877702,78.9371168 C16.0616581,71.0277372 18.012061,62.9732847 22.2080317,56.2477007 C17.5374823,54.5938686 13.2489108,52.3423358 9.85162146,48.6516788 C6.61638336,45.1467153 4.98429545,40.6030292 4.54444197,35.8968613 C4.41132842,29.919854 6.20546761,24.1517518 9.66641999,19.2831022 Z M21.1662735,67.8535401 C21.2646617,70.2037226 21.5598266,72.3508029 23.2208522,74.1322993 C24.6388009,75.7339051 26.8149182,76.2387591 28.690083,75.089781 C31.3234163,73.499781 31.9311086,70.824635 31.9889841,67.9231752 C30.6115482,69.2578467 29.1878119,71.5267883 27.2837094,72.054854 C24.3841489,72.5481022 22.8909621,69.5886131 21.1662735,67.8535401 Z M52.8009987,68.0566423 C52.8588742,70.5693066 53.2292771,72.8324453 55.2028302,74.5733212 C56.8175555,76.0762774 59.0689108,76.1807299 60.7820244,74.7706204 C62.9755042,73.0529562 63.5368962,70.6563504 63.5311528,67.9812044 C62.2057607,69.2926642 60.9325006,71.3294891 59.1846617,72.0490511 C56.2040757,72.8266423 54.6298632,69.7685036 52.8009987,68.0566423 Z M46.4809987,71.4513504 C45.3350647,72.6873723 44.1138925,74.2019343 42.2503028,74.1032847 C40.0394603,74.1903285 38.3263467,71.404927 36.8852478,70.105073 C37.2440757,71.9968248 37.1919878,74.0974818 38.4768229,75.6468613 C39.7442954,77.2716788 41.8451746,78.5831387 43.8939658,77.474781 C46.7414383,76.0182482 47.8179218,73.1748175 47.7195335,70.0760584 C47.3028302,70.5344891 46.8919145,70.9929197 46.4809987,71.4513504 Z M38.4710354,79.8771898 C36.8794603,81.4207664 35.5946251,84.2119708 33.0018046,83.9450365 C30.8662002,84.0727007 29.3730134,81.3163139 27.9550647,80.0222628 C27.98979,81.8617883 27.8971892,83.5736496 29.0199731,85.134635 C30.2295702,86.8755109 32.4519878,88.4248905 34.6223174,87.4093796 C37.6376288,86.005073 38.5057607,83.0049635 38.4710354,79.8771898 Z M46.3363101,80.0280657 C46.3478852,80.7128102 46.3652478,81.3917518 46.3941856,82.0764964 C46.6372625,84.9025182 49.0911819,88.0767153 52.1527936,87.6705109 C55.8278852,86.6433942 56.8349182,83.399562 56.9738193,79.9178102 C55.5095702,81.3221168 53.8138193,84.0959124 51.5219511,83.9276277 C49.3516215,84.1307299 47.7542588,81.3279197 46.3363101,80.0280657 Z M37.0646617,89.9684672 C37.2151379,92.1213504 37.1804127,94.0479197 38.6851746,95.7539781 C40.0973357,97.5354745 42.2618779,98.4755474 44.3511819,97.1814964 C47.077116,95.5914964 47.6269328,92.9279562 47.7716215,89.9742701 C46.3536727,91.3901825 44.9299365,93.6533212 42.8985079,94.1465693 C40.2072991,94.5469708 38.6272991,91.6571168 37.0646617,89.9684672 Z" id="p3" fill="#000000"></path>
            <path d="M15.8127936,22.840292 C17.693746,23.5540511 19.5399731,24.3490511 21.426713,25.0454015 C20.7669328,26.3336496 20.0550647,27.5174453 19.6788742,28.9391606 C18.8628302,32.1771898 19.8409255,35.6473358 22.3179951,37.8930657 C25.3506691,40.9337956 30.5999731,41.1659124 34.00305,38.6358394 C35.6582881,37.4752555 36.4569694,35.8562409 37.4466398,34.1617883 C38.5925738,35.2643431 39.7269328,36.3785036 40.8439291,37.510073 C39.750083,39.2103285 38.7893504,40.9395985 37.915431,42.7733212 C38.9166764,45.1235036 39.8716215,47.5027007 41.2316947,49.6787956 C41.5615848,50.2068613 41.8914749,50.6768978 42.4760171,50.9322263 C44.1891306,48.4311679 45.4566031,45.5645255 46.6372625,42.7791241 C45.7980683,41.0846715 44.681072,39.4366423 44.0791672,37.6435401 C44.3743321,36.3262774 46.1453211,35.1482847 47.0655409,34.1559854 C48.7786544,37.4230292 51.064735,40.040146 54.9713284,40.3070803 C60.0585812,40.9628102 64.8217313,36.9529927 65.0879585,31.8290146 C65.3310354,29.2815328 64.3529401,27.1982847 63.1433431,25.0570073 C65.0821709,24.3084307 67.0094237,23.5250365 68.9366764,22.7532482 C71.6799731,26.9835766 72.9995335,31.7941971 71.6278852,36.7789051 C70.4530134,41.2297445 67.2582881,44.9029927 63.1664933,46.9224088 C59.4624639,48.7561314 55.295431,49.2087591 51.4582881,50.9090146 C47.9915482,52.3481387 44.935724,54.4836131 42.2676654,57.1181387 C38.5231233,53.265 33.812061,50.7697445 28.6495702,49.3944526 C24.0542588,48.1236131 19.6962368,46.9514234 16.4204859,43.2143431 C11.3448083,37.6667518 10.9975555,28.6606204 15.8127936,22.840292 Z" id="p4" fill="#000000"></path>
            <path d="M23.8343321,26.6818248 C24.7487643,26.7456569 25.657409,26.9371533 26.5660537,27.0822263 C25.657409,28.4401095 24.4709621,29.4730292 24.6561636,31.2545255 C24.6908889,34.1733942 28.0708156,35.8330292 30.5594603,34.5912044 C31.9542588,33.9296715 32.4404127,32.1829927 33.0712552,30.8947445 C33.7657607,31.3995985 34.4660537,31.9102555 35.1663467,32.4151095 C34.4429035,33.9760949 33.8815116,35.4268248 32.4346251,36.4597445 C29.9980683,38.3572993 26.4503028,38.1019708 24.2163101,36.0071168 C21.5656141,33.7439781 21.2762368,29.124854 23.8343321,26.6818248 Z" id="p5" fill="#000000"></path>
            <path d="M60.4579218,26.235 C61.6212185,27.7959854 62.6571892,29.1654745 62.4546251,31.2429197 C62.506713,35.484854 58.0329401,38.8621533 53.9758705,37.4172263 C51.4409255,36.6686496 50.300779,34.7188686 49.3111086,32.4383212 C49.994039,31.9160584 50.682757,31.3937956 51.3656874,30.8715328 C52.0312552,32.1481752 52.5521343,33.9354745 53.9295702,34.6028102 C56.4471526,35.8040146 59.8155042,34.1966058 59.8560171,31.2487226 C60.0412185,29.4730292 58.9531599,28.5851825 58.00979,27.2853285 C58.8258339,26.9313504 59.6418779,26.5831752 60.4579218,26.235 Z" id="p6" fill="#000000"></path>
            <path d="M79.0475189,49.9109124 C82.6357973,54.8201825 84.4530867,61.1685766 84.6672259,67.2094161 C84.6151379,74.1613139 82.4390207,80.8346715 78.7523541,86.6898175 C79.0243687,84.484708 79.4005592,82.1983577 79.4005592,79.9816423 C79.4642222,76.7204015 78.5845152,73.4359489 77.4096434,70.4126277 C77.288105,74.8112409 77.4906691,79.0531752 76.2058339,83.329927 C74.5158705,90.3050365 70.0305226,95.690146 64.405028,99.9204745 C67.8891306,94.0537226 70.6960903,88.0012774 71.6163101,81.165438 C72.8779951,73.354708 71.4947716,65.3872993 68.0280317,58.3135401 C72.305028,56.0794161 75.7196801,53.3810584 79.0475189,49.9109124 Z" id="p7" fill="#000000"></path>
            <path d="M5.63250058,49.7484307 C8.58993647,53.4739051 12.4502295,56.1084307 16.6288376,58.2729197 C13.3299365,64.9927007 11.8946251,72.5248905 12.9016581,79.9816423 C13.7292771,87.3281387 16.6462002,93.6997445 20.2923541,100.024927 C16.2294969,96.6592336 12.4907423,93.1020438 10.2104493,88.245 C7.63499142,82.5291241 7.22407567,76.6449635 7.22986321,70.464854 C5.03638336,75.7977372 4.81066908,81.3627372 6.13022952,86.9509489 C2.50722585,81.3975547 0.267445632,75.020146 0.00700607192,68.3641971 C-0.120319935,62.2943431 1.48861779,56.2128832 4.77015626,51.0889051 C5.05953354,50.6420803 5.34312329,50.1952555 5.63250058,49.7484307 Z" id="p8" fill="#000000"></path>
            <path d="M21.1662735,67.8535401 C22.8909621,69.5886131 24.3841489,72.5481022 27.2837094,72.054854 C29.1878119,71.5267883 30.6115482,69.2578467 31.9889841,67.9231752 C31.9311086,70.824635 31.3234163,73.499781 28.690083,75.089781 C26.8149182,76.2387591 24.6388009,75.7339051 23.2208522,74.1322993 C21.5598266,72.3508029 21.2646617,70.2037226 21.1662735,67.8535401 Z" id="p9" fill="#FFFFFF"></path>
            <path d="M52.8009987,68.0566423 C54.6298632,69.7685036 56.2040757,72.8266423 59.1846617,72.0490511 C60.9325006,71.3294891 62.2057607,69.2926642 63.5311528,67.9812044 C63.5368962,70.6563504 62.9755042,73.0529562 60.7820244,74.7706204 C59.0689108,76.1807299 56.8175555,76.0762774 55.2028302,74.5733212 C53.2292771,72.8324453 52.8588742,70.5693066 52.8009987,68.0566423 Z" id="p10" fill="#FFFFFF"></path>
            <path d="M47.7195335,70.0760584 C47.8179218,73.1748175 46.7414383,76.0182482 43.8939658,77.474781 C41.8451746,78.5831387 39.7442954,77.2716788 38.4768229,75.6468613 C37.1919878,74.0974818 37.2440757,71.9968248 36.8852478,70.105073 C38.3263467,71.404927 40.0394603,74.1903285 42.2503028,74.1032847 C44.1138925,74.2019343 45.3350647,72.6873723 46.4809987,71.4513504 C46.8919145,70.9929197 47.3028302,70.5344891 47.7195335,70.0760584 Z" id="p11" fill="#FFFFFF"></path>
            <path d="M27.9550647,80.0222628 C29.3730134,81.3163139 30.8662002,84.0727007 33.0018046,83.9450365 C35.5946251,84.2119708 36.8794603,81.4207664 38.4710354,79.8771898 C38.5057607,83.0049635 37.6376288,86.005073 34.6223174,87.4093796 C32.4519878,88.4248905 30.2295702,86.8755109 29.0199731,85.134635 C27.8971892,83.5736496 27.98979,81.8617883 27.9550647,80.0222628 Z" id="p12" fill="#FFFFFF"></path>
            <path d="M46.3363101,80.0280657 C47.7542588,81.3279197 49.3516215,84.1307299 51.5219511,83.9276277 C53.8138193,84.0959124 55.5095702,81.3221168 56.9738193,79.9178102 C56.8349182,83.399562 55.8278852,86.6433942 52.1527936,87.6705109 C49.0911819,88.0767153 46.6372625,84.9025182 46.3941856,82.0764964 C46.3652478,81.3917518 46.3478852,80.7128102 46.3363101,80.0280657 Z" id="p13" fill="#FFFFFF"></path>
            <path d="M37.0646617,89.9684672 C38.6272991,91.6571168 40.2072991,94.5469708 42.8985079,94.1465693 C44.9299365,93.6533212 46.3536727,91.3901825 47.7716215,89.9742701 C47.6269328,92.9279562 47.077116,95.5914964 44.3511819,97.1814964 C42.2618779,98.4755474 40.0973357,97.5354745 38.6851746,95.7539781 C37.1804127,94.0479197 37.2151379,92.1213504 37.0646617,89.9684672 Z" id="p14" fill="#FFFFFF"></path>
            <path d="M28.9968229,101.284161 C29.8186544,101.643942 30.6173357,102.055949 31.4102295,102.473759 C33.0654676,102.421533 34.4197533,102.17781 35.3399731,103.854854 C36.9315482,106.651861 35.646713,109.19354 34.0146251,111.57854 C33.1001929,110.092993 32.2609987,108.572628 31.468105,107.011642 C30.8719878,109.031058 30.1253944,110.887993 28.9968229,112.669489 C27.810376,110.946022 27.0116947,109.060073 26.3229768,107.092883 C25.4722075,108.595839 24.650376,110.110401 23.7822442,111.601752 C22.2369694,109.025255 21.0736727,106.234051 22.7867863,103.384818 C23.6086178,102.032737 25.1944053,102.45635 26.537116,102.264854 C27.3589475,101.939891 28.1692039,101.591715 28.9968229,101.284161 Z" id="p15" fill="#000000"></path>
            <path d="M56.4240024,101.672956 C58.00979,102.119781 59.6245152,102.328686 61.233453,102.671058 C63.9015116,105.282372 62.940779,108.944015 60.8051746,111.549526 C60.035431,109.994343 59.28305,108.427555 58.4727936,106.889781 C57.8419511,109.002044 57.0432698,110.829964 55.7005592,112.588248 C54.7108889,110.812555 53.9179951,108.990438 53.217702,107.081277 C52.4421709,108.601642 51.6724273,110.122007 50.8332332,111.613358 C49.8898632,110.220657 48.9927936,108.95562 48.7960171,107.22635 C48.541365,105.502883 49.1722075,103.21073 50.8795335,102.444745 C51.68979,102.473759 52.4942588,102.51438 53.3045152,102.560803 C54.415724,102.073358 55.1449548,101.255146 56.4240024,101.672956 Z" id="p16" fill="#000000"></path>
        </g>
    </g>
</svg>